<mxfile host="app.diagrams.net" agent="Mozilla/5.0 (Windows NT 10.0; Win64; x64) AppleWebKit/537.36 (KHTML, like Gecko) Chrome/127.0.0.0 Safari/537.36" version="24.7.7">
  <diagram id="Ht1M8jgEwFfnCIfOTk4-" name="Page-1">
    <mxGraphModel dx="1580" dy="868" grid="1" gridSize="10" guides="1" tooltips="1" connect="1" arrows="1" fold="1" page="1" pageScale="1" pageWidth="1169" pageHeight="827" math="0" shadow="0">
      <root>
        <mxCell id="0" />
        <mxCell id="1" parent="0" />
        <mxCell id="4YMTbdv9VX20mcSmgmgd-71" style="edgeStyle=orthogonalEdgeStyle;rounded=0;orthogonalLoop=1;jettySize=auto;html=1;entryX=0.5;entryY=0;entryDx=0;entryDy=0;entryPerimeter=0;" edge="1" parent="1" source="4YMTbdv9VX20mcSmgmgd-3" target="4YMTbdv9VX20mcSmgmgd-60">
          <mxGeometry relative="1" as="geometry" />
        </mxCell>
        <mxCell id="4YMTbdv9VX20mcSmgmgd-1" value="AWS Cloud" style="points=[[0,0],[0.25,0],[0.5,0],[0.75,0],[1,0],[1,0.25],[1,0.5],[1,0.75],[1,1],[0.75,1],[0.5,1],[0.25,1],[0,1],[0,0.75],[0,0.5],[0,0.25]];outlineConnect=0;gradientColor=none;html=1;whiteSpace=wrap;fontSize=12;fontStyle=0;container=1;pointerEvents=0;collapsible=0;recursiveResize=0;shape=mxgraph.aws4.group;grIcon=mxgraph.aws4.group_aws_cloud_alt;strokeColor=#232F3E;fillColor=none;verticalAlign=top;align=left;spacingLeft=30;fontColor=#232F3E;dashed=0;" vertex="1" parent="1">
          <mxGeometry x="10" y="40" width="1584" height="990" as="geometry" />
        </mxCell>
        <mxCell id="4YMTbdv9VX20mcSmgmgd-74" style="edgeStyle=orthogonalEdgeStyle;rounded=0;orthogonalLoop=1;jettySize=auto;html=1;exitX=0.5;exitY=0;exitDx=0;exitDy=0;exitPerimeter=0;" edge="1" parent="4YMTbdv9VX20mcSmgmgd-1">
          <mxGeometry relative="1" as="geometry">
            <mxPoint x="311" y="650" as="sourcePoint" />
            <mxPoint x="311" y="510" as="targetPoint" />
          </mxGeometry>
        </mxCell>
        <mxCell id="4YMTbdv9VX20mcSmgmgd-67" value="S3 Event Trigger&lt;div&gt;&lt;br&gt;&lt;/div&gt;" style="text;html=1;align=center;verticalAlign=middle;resizable=0;points=[];autosize=1;strokeColor=none;fillColor=none;" vertex="1" parent="4YMTbdv9VX20mcSmgmgd-1">
          <mxGeometry x="200" y="560" width="110" height="40" as="geometry" />
        </mxCell>
        <mxCell id="4YMTbdv9VX20mcSmgmgd-60" value="Amazon S3" style="sketch=0;points=[[0,0,0],[0.25,0,0],[0.5,0,0],[0.75,0,0],[1,0,0],[0,1,0],[0.25,1,0],[0.5,1,0],[0.75,1,0],[1,1,0],[0,0.25,0],[0,0.5,0],[0,0.75,0],[1,0.25,0],[1,0.5,0],[1,0.75,0]];outlineConnect=0;fontColor=#232F3E;fillColor=#7AA116;strokeColor=#ffffff;dashed=0;verticalLabelPosition=bottom;verticalAlign=top;align=center;html=1;fontSize=12;fontStyle=0;aspect=fixed;shape=mxgraph.aws4.resourceIcon;resIcon=mxgraph.aws4.s3;labelBackgroundColor=default;labelBorderColor=#FF8000;" vertex="1" parent="4YMTbdv9VX20mcSmgmgd-1">
          <mxGeometry x="283" y="450" width="60" height="60" as="geometry" />
        </mxCell>
        <mxCell id="4YMTbdv9VX20mcSmgmgd-95" style="edgeStyle=orthogonalEdgeStyle;rounded=0;orthogonalLoop=1;jettySize=auto;html=1;dashed=1;" edge="1" parent="4YMTbdv9VX20mcSmgmgd-1" source="4YMTbdv9VX20mcSmgmgd-73" target="4YMTbdv9VX20mcSmgmgd-93">
          <mxGeometry relative="1" as="geometry">
            <Array as="points">
              <mxPoint x="313" y="890" />
            </Array>
          </mxGeometry>
        </mxCell>
        <mxCell id="4YMTbdv9VX20mcSmgmgd-73" value="AWS Lambda" style="sketch=0;points=[[0,0,0],[0.25,0,0],[0.5,0,0],[0.75,0,0],[1,0,0],[0,1,0],[0.25,1,0],[0.5,1,0],[0.75,1,0],[1,1,0],[0,0.25,0],[0,0.5,0],[0,0.75,0],[1,0.25,0],[1,0.5,0],[1,0.75,0]];outlineConnect=0;fontColor=#232F3E;fillColor=#ED7100;strokeColor=#ffffff;dashed=0;verticalLabelPosition=bottom;verticalAlign=top;align=center;html=1;fontSize=12;fontStyle=0;aspect=fixed;shape=mxgraph.aws4.resourceIcon;resIcon=mxgraph.aws4.lambda;labelBackgroundColor=default;labelBorderColor=#FF8000;" vertex="1" parent="4YMTbdv9VX20mcSmgmgd-1">
          <mxGeometry x="283" y="650" width="60" height="60" as="geometry" />
        </mxCell>
        <mxCell id="4YMTbdv9VX20mcSmgmgd-93" value="CloudWatch Logs Group" style="sketch=0;points=[[0,0,0],[0.25,0,0],[0.5,0,0],[0.75,0,0],[1,0,0],[0,1,0],[0.25,1,0],[0.5,1,0],[0.75,1,0],[1,1,0],[0,0.25,0],[0,0.5,0],[0,0.75,0],[1,0.25,0],[1,0.5,0],[1,0.75,0]];points=[[0,0,0],[0.25,0,0],[0.5,0,0],[0.75,0,0],[1,0,0],[0,1,0],[0.25,1,0],[0.5,1,0],[0.75,1,0],[1,1,0],[0,0.25,0],[0,0.5,0],[0,0.75,0],[1,0.25,0],[1,0.5,0],[1,0.75,0]];outlineConnect=0;fontColor=#232F3E;fillColor=#E7157B;strokeColor=#ffffff;dashed=0;verticalLabelPosition=bottom;verticalAlign=top;align=center;html=1;fontSize=12;fontStyle=0;aspect=fixed;shape=mxgraph.aws4.resourceIcon;resIcon=mxgraph.aws4.cloudwatch_2;labelBackgroundColor=default;labelBorderColor=#0000FF;" vertex="1" parent="4YMTbdv9VX20mcSmgmgd-1">
          <mxGeometry x="644" y="850" width="78" height="78" as="geometry" />
        </mxCell>
        <mxCell id="4YMTbdv9VX20mcSmgmgd-27" style="edgeStyle=orthogonalEdgeStyle;rounded=0;orthogonalLoop=1;jettySize=auto;html=1;entryX=0;entryY=0.633;entryDx=0;entryDy=0;entryPerimeter=0;" edge="1" parent="1" source="4YMTbdv9VX20mcSmgmgd-6" target="4YMTbdv9VX20mcSmgmgd-20">
          <mxGeometry relative="1" as="geometry">
            <Array as="points">
              <mxPoint x="569" y="598" />
            </Array>
          </mxGeometry>
        </mxCell>
        <mxCell id="4YMTbdv9VX20mcSmgmgd-21" style="edgeStyle=orthogonalEdgeStyle;rounded=0;orthogonalLoop=1;jettySize=auto;html=1;entryX=0;entryY=0.5;entryDx=0;entryDy=0;entryPerimeter=0;" edge="1" parent="1" source="4YMTbdv9VX20mcSmgmgd-6" target="4YMTbdv9VX20mcSmgmgd-18">
          <mxGeometry relative="1" as="geometry">
            <Array as="points">
              <mxPoint x="569" y="470" />
            </Array>
          </mxGeometry>
        </mxCell>
        <mxCell id="4YMTbdv9VX20mcSmgmgd-23" style="edgeStyle=orthogonalEdgeStyle;rounded=0;orthogonalLoop=1;jettySize=auto;html=1;entryX=0;entryY=0.5;entryDx=0;entryDy=0;entryPerimeter=0;" edge="1" parent="1" source="4YMTbdv9VX20mcSmgmgd-6" target="4YMTbdv9VX20mcSmgmgd-19">
          <mxGeometry relative="1" as="geometry">
            <Array as="points">
              <mxPoint x="569" y="710" />
            </Array>
          </mxGeometry>
        </mxCell>
        <mxCell id="4YMTbdv9VX20mcSmgmgd-10" style="edgeStyle=orthogonalEdgeStyle;rounded=0;orthogonalLoop=1;jettySize=auto;html=1;entryX=0;entryY=0.5;entryDx=0;entryDy=0;entryPerimeter=0;" edge="1" parent="1" source="4YMTbdv9VX20mcSmgmgd-3" target="4YMTbdv9VX20mcSmgmgd-6">
          <mxGeometry relative="1" as="geometry">
            <Array as="points">
              <mxPoint x="323" y="350" />
            </Array>
          </mxGeometry>
        </mxCell>
        <mxCell id="4YMTbdv9VX20mcSmgmgd-3" value="Web Browser" style="image;aspect=fixed;perimeter=ellipsePerimeter;html=1;align=center;shadow=0;dashed=0;fontColor=#000000;labelBackgroundColor=#FFFFFF;fontSize=12;spacingTop=3;image=img/lib/ibm/users/browser.svg;labelBorderColor=#3333FF;" vertex="1" parent="1">
          <mxGeometry x="293" y="195" width="60" height="60" as="geometry" />
        </mxCell>
        <mxCell id="4YMTbdv9VX20mcSmgmgd-5" value="Amazon Cognito" style="sketch=0;points=[[0,0,0],[0.25,0,0],[0.5,0,0],[0.75,0,0],[1,0,0],[0,1,0],[0.25,1,0],[0.5,1,0],[0.75,1,0],[1,1,0],[0,0.25,0],[0,0.5,0],[0,0.75,0],[1,0.25,0],[1,0.5,0],[1,0.75,0]];outlineConnect=0;fontColor=#232F3E;fillColor=#DD344C;strokeColor=#ffffff;dashed=0;verticalLabelPosition=bottom;verticalAlign=top;align=center;html=1;fontSize=12;fontStyle=0;aspect=fixed;shape=mxgraph.aws4.resourceIcon;resIcon=mxgraph.aws4.cognito;labelBackgroundColor=default;labelBorderColor=#FF8000;" vertex="1" parent="1">
          <mxGeometry x="539" y="195" width="60" height="60" as="geometry" />
        </mxCell>
        <mxCell id="4YMTbdv9VX20mcSmgmgd-6" value="Amazon API Gateway" style="sketch=0;points=[[0,0,0],[0.25,0,0],[0.5,0,0],[0.75,0,0],[1,0,0],[0,1,0],[0.25,1,0],[0.5,1,0],[0.75,1,0],[1,1,0],[0,0.25,0],[0,0.5,0],[0,0.75,0],[1,0.25,0],[1,0.5,0],[1,0.75,0]];outlineConnect=0;fontColor=#232F3E;fillColor=#E7157B;strokeColor=#ffffff;dashed=0;verticalLabelPosition=bottom;verticalAlign=top;align=center;html=1;fontSize=12;fontStyle=0;aspect=fixed;shape=mxgraph.aws4.resourceIcon;resIcon=mxgraph.aws4.api_gateway;labelBackgroundColor=default;labelBorderColor=#FF8000;" vertex="1" parent="1">
          <mxGeometry x="539" y="320" width="60" height="60" as="geometry" />
        </mxCell>
        <mxCell id="4YMTbdv9VX20mcSmgmgd-7" style="edgeStyle=orthogonalEdgeStyle;rounded=0;orthogonalLoop=1;jettySize=auto;html=1;entryX=0;entryY=0.5;entryDx=0;entryDy=0;entryPerimeter=0;" edge="1" parent="1" source="4YMTbdv9VX20mcSmgmgd-3">
          <mxGeometry relative="1" as="geometry">
            <mxPoint x="539" y="110" as="targetPoint" />
            <Array as="points">
              <mxPoint x="323" y="110" />
            </Array>
          </mxGeometry>
        </mxCell>
        <mxCell id="4YMTbdv9VX20mcSmgmgd-9" style="edgeStyle=orthogonalEdgeStyle;rounded=0;orthogonalLoop=1;jettySize=auto;html=1;entryX=0;entryY=0.5;entryDx=0;entryDy=0;entryPerimeter=0;" edge="1" parent="1" source="4YMTbdv9VX20mcSmgmgd-3" target="4YMTbdv9VX20mcSmgmgd-5">
          <mxGeometry relative="1" as="geometry">
            <Array as="points">
              <mxPoint x="523" y="225" />
            </Array>
          </mxGeometry>
        </mxCell>
        <mxCell id="4YMTbdv9VX20mcSmgmgd-12" value="Amazon SQS" style="sketch=0;points=[[0,0,0],[0.25,0,0],[0.5,0,0],[0.75,0,0],[1,0,0],[0,1,0],[0.25,1,0],[0.5,1,0],[0.75,1,0],[1,1,0],[0,0.25,0],[0,0.5,0],[0,0.75,0],[1,0.25,0],[1,0.5,0],[1,0.75,0]];outlineConnect=0;fontColor=#232F3E;fillColor=#E7157B;strokeColor=#ffffff;dashed=0;verticalLabelPosition=bottom;verticalAlign=top;align=center;html=1;fontSize=12;fontStyle=0;aspect=fixed;shape=mxgraph.aws4.resourceIcon;resIcon=mxgraph.aws4.sqs;labelBackgroundColor=default;labelBorderColor=#FF8000;" vertex="1" parent="1">
          <mxGeometry x="763" y="320" width="60" height="60" as="geometry" />
        </mxCell>
        <mxCell id="4YMTbdv9VX20mcSmgmgd-13" style="edgeStyle=orthogonalEdgeStyle;rounded=0;orthogonalLoop=1;jettySize=auto;html=1;entryX=0;entryY=0.5;entryDx=0;entryDy=0;entryPerimeter=0;" edge="1" parent="1" source="4YMTbdv9VX20mcSmgmgd-6" target="4YMTbdv9VX20mcSmgmgd-12">
          <mxGeometry relative="1" as="geometry" />
        </mxCell>
        <mxCell id="4YMTbdv9VX20mcSmgmgd-18" value="AWS Lambda" style="sketch=0;points=[[0,0,0],[0.25,0,0],[0.5,0,0],[0.75,0,0],[1,0,0],[0,1,0],[0.25,1,0],[0.5,1,0],[0.75,1,0],[1,1,0],[0,0.25,0],[0,0.5,0],[0,0.75,0],[1,0.25,0],[1,0.5,0],[1,0.75,0]];outlineConnect=0;fontColor=#232F3E;fillColor=#ED7100;strokeColor=#ffffff;dashed=0;verticalLabelPosition=bottom;verticalAlign=top;align=center;html=1;fontSize=12;fontStyle=0;aspect=fixed;shape=mxgraph.aws4.resourceIcon;resIcon=mxgraph.aws4.lambda;labelBackgroundColor=default;labelBorderColor=#FF8000;" vertex="1" parent="1">
          <mxGeometry x="763" y="440" width="60" height="60" as="geometry" />
        </mxCell>
        <mxCell id="4YMTbdv9VX20mcSmgmgd-20" value="AWS Lambda" style="sketch=0;points=[[0,0,0],[0.25,0,0],[0.5,0,0],[0.75,0,0],[1,0,0],[0,1,0],[0.25,1,0],[0.5,1,0],[0.75,1,0],[1,1,0],[0,0.25,0],[0,0.5,0],[0,0.75,0],[1,0.25,0],[1,0.5,0],[1,0.75,0]];outlineConnect=0;fontColor=#232F3E;fillColor=#ED7100;strokeColor=#ffffff;dashed=0;verticalLabelPosition=bottom;verticalAlign=top;align=center;html=1;fontSize=12;fontStyle=0;aspect=fixed;shape=mxgraph.aws4.resourceIcon;resIcon=mxgraph.aws4.lambda;labelBackgroundColor=default;labelBorderColor=#FF8000;" vertex="1" parent="1">
          <mxGeometry x="763" y="560" width="60" height="60" as="geometry" />
        </mxCell>
        <mxCell id="4YMTbdv9VX20mcSmgmgd-19" value="AWS Lambda" style="sketch=0;points=[[0,0,0],[0.25,0,0],[0.5,0,0],[0.75,0,0],[1,0,0],[0,1,0],[0.25,1,0],[0.5,1,0],[0.75,1,0],[1,1,0],[0,0.25,0],[0,0.5,0],[0,0.75,0],[1,0.25,0],[1,0.5,0],[1,0.75,0]];outlineConnect=0;fontColor=#232F3E;fillColor=#ED7100;strokeColor=#ffffff;dashed=0;verticalLabelPosition=bottom;verticalAlign=top;align=center;html=1;fontSize=12;fontStyle=0;aspect=fixed;shape=mxgraph.aws4.resourceIcon;resIcon=mxgraph.aws4.lambda;labelBackgroundColor=default;labelBorderColor=#FF8000;" vertex="1" parent="1">
          <mxGeometry x="763" y="680" width="60" height="60" as="geometry" />
        </mxCell>
        <mxCell id="4YMTbdv9VX20mcSmgmgd-96" style="edgeStyle=orthogonalEdgeStyle;rounded=0;orthogonalLoop=1;jettySize=auto;html=1;verticalAlign=middle;dashed=1;" edge="1" parent="1" source="4YMTbdv9VX20mcSmgmgd-24" target="4YMTbdv9VX20mcSmgmgd-93">
          <mxGeometry relative="1" as="geometry">
            <Array as="points">
              <mxPoint x="1063" y="929" />
            </Array>
          </mxGeometry>
        </mxCell>
        <mxCell id="4YMTbdv9VX20mcSmgmgd-24" value="AWS Lambda" style="sketch=0;points=[[0,0,0],[0.25,0,0],[0.5,0,0],[0.75,0,0],[1,0,0],[0,1,0],[0.25,1,0],[0.5,1,0],[0.75,1,0],[1,1,0],[0,0.25,0],[0,0.5,0],[0,0.75,0],[1,0.25,0],[1,0.5,0],[1,0.75,0]];outlineConnect=0;fontColor=#232F3E;fillColor=#ED7100;strokeColor=#ffffff;dashed=0;verticalLabelPosition=bottom;verticalAlign=top;align=center;html=1;fontSize=12;fontStyle=0;aspect=fixed;shape=mxgraph.aws4.resourceIcon;resIcon=mxgraph.aws4.lambda;labelBackgroundColor=default;labelBorderColor=#FF8000;" vertex="1" parent="1">
          <mxGeometry x="1033" y="320" width="60" height="60" as="geometry" />
        </mxCell>
        <mxCell id="4YMTbdv9VX20mcSmgmgd-25" style="edgeStyle=orthogonalEdgeStyle;rounded=0;orthogonalLoop=1;jettySize=auto;html=1;entryX=1;entryY=0.5;entryDx=0;entryDy=0;entryPerimeter=0;" edge="1" parent="1" source="4YMTbdv9VX20mcSmgmgd-24" target="4YMTbdv9VX20mcSmgmgd-12">
          <mxGeometry relative="1" as="geometry" />
        </mxCell>
        <mxCell id="4YMTbdv9VX20mcSmgmgd-28" value="Amazon DynamoDB" style="outlineConnect=0;dashed=0;verticalLabelPosition=bottom;verticalAlign=top;align=center;html=1;shape=mxgraph.aws3.dynamo_db;fillColor=#2E73B8;gradientColor=none;labelBackgroundColor=default;labelBorderColor=#FF8000;" vertex="1" parent="1">
          <mxGeometry x="1217" y="560" width="60" height="60" as="geometry" />
        </mxCell>
        <mxCell id="4YMTbdv9VX20mcSmgmgd-29" style="edgeStyle=orthogonalEdgeStyle;rounded=0;orthogonalLoop=1;jettySize=auto;html=1;entryX=0.5;entryY=0;entryDx=0;entryDy=0;entryPerimeter=0;" edge="1" parent="1" source="4YMTbdv9VX20mcSmgmgd-24">
          <mxGeometry relative="1" as="geometry">
            <mxPoint x="1243" y="560" as="targetPoint" />
          </mxGeometry>
        </mxCell>
        <mxCell id="4YMTbdv9VX20mcSmgmgd-32" style="edgeStyle=orthogonalEdgeStyle;rounded=0;orthogonalLoop=1;jettySize=auto;html=1;" edge="1" parent="1" source="4YMTbdv9VX20mcSmgmgd-30">
          <mxGeometry relative="1" as="geometry">
            <mxPoint x="1213" y="590" as="targetPoint" />
            <Array as="points">
              <mxPoint x="963" y="590" />
              <mxPoint x="963" y="590" />
            </Array>
          </mxGeometry>
        </mxCell>
        <mxCell id="4YMTbdv9VX20mcSmgmgd-94" style="edgeStyle=orthogonalEdgeStyle;rounded=0;orthogonalLoop=1;jettySize=auto;html=1;dashed=1;" edge="1" parent="1" source="4YMTbdv9VX20mcSmgmgd-30" target="4YMTbdv9VX20mcSmgmgd-93">
          <mxGeometry relative="1" as="geometry">
            <Array as="points">
              <mxPoint x="793" y="930" />
            </Array>
          </mxGeometry>
        </mxCell>
        <mxCell id="4YMTbdv9VX20mcSmgmgd-30" value="" style="swimlane;startSize=0;" vertex="1" parent="1">
          <mxGeometry x="703" y="430" width="180" height="340" as="geometry" />
        </mxCell>
        <mxCell id="4YMTbdv9VX20mcSmgmgd-35" value="Amazon Amplify" style="sketch=0;points=[[0,0,0],[0.25,0,0],[0.5,0,0],[0.75,0,0],[1,0,0],[0,1,0],[0.25,1,0],[0.5,1,0],[0.75,1,0],[1,1,0],[0,0.25,0],[0,0.5,0],[0,0.75,0],[1,0.25,0],[1,0.5,0],[1,0.75,0]];outlineConnect=0;fontColor=#232F3E;fillColor=#DD344C;strokeColor=#ffffff;dashed=0;verticalLabelPosition=bottom;verticalAlign=top;align=center;html=1;fontSize=12;fontStyle=0;aspect=fixed;shape=mxgraph.aws4.resourceIcon;resIcon=mxgraph.aws4.amplify;labelBackgroundColor=default;labelBorderColor=#FF8000;" vertex="1" parent="1">
          <mxGeometry x="543" y="75" width="60" height="60" as="geometry" />
        </mxCell>
        <mxCell id="4YMTbdv9VX20mcSmgmgd-42" value="HTML, CSS, JavaScript, NextJS" style="text;html=1;align=center;verticalAlign=middle;resizable=0;points=[];autosize=1;strokeColor=none;fillColor=none;" vertex="1" parent="1">
          <mxGeometry x="327" y="78" width="200" height="30" as="geometry" />
        </mxCell>
        <mxCell id="4YMTbdv9VX20mcSmgmgd-43" value="Authenticate" style="text;html=1;align=center;verticalAlign=middle;resizable=0;points=[];autosize=1;strokeColor=none;fillColor=none;" vertex="1" parent="1">
          <mxGeometry x="378" y="200" width="90" height="30" as="geometry" />
        </mxCell>
        <mxCell id="4YMTbdv9VX20mcSmgmgd-44" value="Dynamic API calls over HTTP" style="text;html=1;align=center;verticalAlign=middle;resizable=0;points=[];autosize=1;strokeColor=none;fillColor=none;" vertex="1" parent="1">
          <mxGeometry x="333" y="350" width="180" height="30" as="geometry" />
        </mxCell>
        <mxCell id="4YMTbdv9VX20mcSmgmgd-45" value="/POST" style="text;html=1;align=center;verticalAlign=middle;resizable=0;points=[];autosize=1;strokeColor=none;fillColor=none;" vertex="1" parent="1">
          <mxGeometry x="633" y="326" width="60" height="30" as="geometry" />
        </mxCell>
        <mxCell id="4YMTbdv9VX20mcSmgmgd-46" value="/GET" style="text;html=1;align=center;verticalAlign=middle;resizable=0;points=[];autosize=1;strokeColor=none;fillColor=none;" vertex="1" parent="1">
          <mxGeometry x="604" y="447" width="50" height="30" as="geometry" />
        </mxCell>
        <mxCell id="4YMTbdv9VX20mcSmgmgd-50" value="SQS Event Trigger" style="text;html=1;align=center;verticalAlign=middle;resizable=0;points=[];autosize=1;strokeColor=none;fillColor=none;" vertex="1" parent="1">
          <mxGeometry x="873" y="325" width="120" height="30" as="geometry" />
        </mxCell>
        <mxCell id="4YMTbdv9VX20mcSmgmgd-47" value="/PUT&lt;div&gt;/PATCH&lt;/div&gt;" style="text;html=1;align=center;verticalAlign=middle;resizable=0;points=[];autosize=1;strokeColor=none;fillColor=none;" vertex="1" parent="1">
          <mxGeometry x="599" y="560" width="70" height="40" as="geometry" />
        </mxCell>
        <mxCell id="4YMTbdv9VX20mcSmgmgd-48" value="/DELETE" style="text;html=1;align=center;verticalAlign=middle;resizable=0;points=[];autosize=1;strokeColor=none;fillColor=none;" vertex="1" parent="1">
          <mxGeometry x="604" y="686" width="70" height="30" as="geometry" />
        </mxCell>
      </root>
    </mxGraphModel>
  </diagram>
</mxfile>
